# xmcd
#
# Track frame offsets:
#      150
#      16454
#      33538
#      52794
#      66002
#      84082
#      95754
#      114326
#      129550
#      146502
#      164474
#      183286
#      200286
#      214754
#      233134
# 
# Disc length: 3307 seconds
#
# Revision: 3
# Processed by: cddbd v1.4PL0 Copyright (c) Steve Scherf et al.
#
# Submitted via: FreeRIP 1.21
#
DISCID=c40ce90f
DTITLE=Vince Gill - Souvenirs
DYEAR=1995
DGENRE=Country
TTITLE0=Never Alone
TTITLE1=Never Knew Lonely
TTITLE2=When I Call Your Name
TTITLE3=Liza Jane
TTITLE4=Look At Us
TTITLE5=Take Your Memory With You
TTITLE6=Pocket Full of Gold
TTITLE7=The Heart Won't Lie: (with Reba McEntire)
TTITLE8=Don't Let Our Love Start Slippin' Away
TTITLE9=I Still Believe In You
TTITLE10=No Future In the Past
TTITLE11=Tryin' To Get Over You
TTITLE12=One More Last Chance
TTITLE13=I Can't Tell You Why
TTITLE14=I Will Always Love You (with Dolly Parton)
EXTD=YEAR: 1995 ID3G: 2
EXTT0=
EXTT1=
EXTT2=
EXTT3=
EXTT4=
EXTT5=
EXTT6=
EXTT7=
EXTT8=
EXTT9=
EXTT10=
EXTT11=
EXTT12=
EXTT13=
EXTT14=
PLAYORDER=
